<svg width="677" height="900" viewBox="0 0 677 900" fill="none" xmlns="http://www.w3.org/2000/svg">
<path d="M27.4652 179.806C27.3141 178.598 27.1932 178.477 25.9542 178.296C27.163 178.145 27.2839 178.024 27.4652 176.786C27.6163 177.994 27.7372 178.114 28.9761 178.296C27.7674 178.447 27.6465 178.598 27.4652 179.806Z" fill="white" fill-opacity="0.1"/>
<path d="M40.7817 13.3301C40.6306 12.122 40.5098 12.0012 39.2708 11.8199C40.4795 11.6688 40.6004 11.548 40.7817 10.3097C40.9328 11.5179 41.0537 11.6386 42.2927 11.8199C41.0839 11.9708 40.963 12.122 40.7817 13.3301Z" fill="white" fill-opacity="0.1"/>
<path d="M126.229 118.383C126.078 117.174 125.957 117.054 124.718 116.872C125.927 116.721 126.048 116.6 126.229 115.362C126.38 116.57 126.501 116.691 127.74 116.872C126.531 117.023 126.411 117.174 126.229 118.383Z" fill="white" fill-opacity="0.1"/>
<path d="M217.951 27.7029C217.951 28.32 217.45 28.8205 216.832 28.8205C216.215 28.8205 215.714 28.32 215.714 27.7029C215.714 27.0856 216.215 26.5854 216.832 26.5854C217.45 26.5854 217.951 27.0856 217.951 27.7029Z" fill="white" fill-opacity="0.1"/>
<path d="M63.8953 78.2197C63.8953 78.8368 63.3946 79.3373 62.777 79.3373C62.1597 79.3373 61.6589 78.8368 61.6589 78.2197C61.6589 77.6024 62.1597 77.1022 62.777 77.1022C63.3946 77.1022 63.8953 77.6024 63.8953 78.2197Z" fill="white" fill-opacity="0.1"/>
<path d="M69.2495 181.583C69.2495 182.2 68.7491 182.7 68.1315 182.7C67.5141 182.7 67.0134 182.2 67.0134 181.583C67.0134 180.965 67.5141 180.465 68.1315 180.465C68.7491 180.465 69.2495 180.965 69.2495 181.583Z" fill="white" fill-opacity="0.1"/>
<path d="M84.7235 121.287C84.7235 121.904 84.2231 122.405 83.6055 122.405C82.9879 122.405 82.4874 121.904 82.4874 121.287C82.4874 120.67 82.9879 120.17 83.6055 120.17C84.2231 120.17 84.7235 120.67 84.7235 121.287Z" fill="white" fill-opacity="0.1"/>
<path d="M285.332 11.1235C284.553 11.9019 283.29 11.9019 282.511 11.1235C281.732 10.3449 281.732 9.0827 282.511 8.30435C283.29 7.52573 284.553 7.52573 285.332 8.30435C286.111 9.0827 286.111 10.3449 285.332 11.1235Z" fill="white" fill-opacity="0.15"/>
<path d="M166.904 78.3797C166.904 78.9968 166.403 79.4972 165.786 79.4972C165.168 79.4972 164.668 78.9968 164.668 78.3797C164.668 77.7624 165.168 77.2622 165.786 77.2622C166.403 77.2622 166.904 77.7624 166.904 78.3797Z" fill="white" fill-opacity="0.15"/>
<path d="M104.405 4.08257C104.254 2.87439 104.133 2.75363 102.894 2.57235C104.103 2.4212 104.224 2.30043 104.405 1.06213C104.556 2.27031 104.677 2.39107 105.916 2.57235C104.707 2.72324 104.586 2.87439 104.405 4.08257Z" fill="white" fill-opacity="0.1"/>
<path d="M133.196 82.1308C133.044 80.9227 132.924 80.8019 131.685 80.6206C132.893 80.4695 133.014 80.3487 133.196 79.1104C133.347 80.3186 133.468 80.4393 134.706 80.6206C133.498 80.7715 133.377 80.9227 133.196 82.1308Z" fill="white" fill-opacity="0.1"/>
<path d="M454.223 384.39C454.374 385.598 454.495 385.719 455.734 385.9C454.525 386.051 454.405 386.172 454.223 387.41C454.072 386.202 453.951 386.082 452.712 385.9C453.921 385.749 454.042 385.598 454.223 384.39Z" fill="white" fill-opacity="0.1"/>
<path d="M537.821 140.605C537.972 141.813 538.093 141.933 539.332 142.115C538.123 142.266 538.003 142.387 537.821 143.625C537.67 142.417 537.549 142.296 536.31 142.115C537.519 141.964 537.64 141.813 537.821 140.605Z" fill="white" fill-opacity="0.1"/>
<path d="M524.505 307.08C524.656 308.289 524.777 308.409 526.016 308.591C524.807 308.742 524.686 308.862 524.505 310.101C524.354 308.893 524.233 308.772 522.994 308.591C524.202 308.44 524.323 308.289 524.505 307.08Z" fill="white" fill-opacity="0.1"/>
<path d="M439.057 202.028C439.208 203.236 439.329 203.357 440.568 203.538C439.359 203.689 439.238 203.81 439.057 205.048C438.906 203.84 438.785 203.719 437.546 203.538C438.755 203.387 438.876 203.236 439.057 202.028Z" fill="white" fill-opacity="0.1"/>
<path d="M563.05 386.293C563.05 385.676 563.551 385.175 564.168 385.175C564.786 385.175 565.286 385.676 565.286 386.293C565.286 386.91 564.786 387.41 564.168 387.41C563.551 387.41 563.05 386.91 563.05 386.293Z" fill="white" fill-opacity="0.1"/>
<path d="M347.336 292.708C347.336 292.09 347.836 291.59 348.454 291.59C349.071 291.59 349.572 292.09 349.572 292.708C349.572 293.325 349.071 293.825 348.454 293.825C347.836 293.825 347.336 293.325 347.336 292.708Z" fill="white" fill-opacity="0.1"/>
<path d="M501.391 242.191C501.391 241.574 501.892 241.073 502.509 241.073C503.127 241.073 503.627 241.574 503.627 242.191C503.627 242.808 503.127 243.308 502.509 243.308C501.892 243.308 501.391 242.808 501.391 242.191Z" fill="white" fill-opacity="0.1"/>
<path d="M496.037 138.828C496.037 138.211 496.537 137.71 497.155 137.71C497.772 137.71 498.273 138.211 498.273 138.828C498.273 139.445 497.772 139.945 497.155 139.945C496.537 139.945 496.037 139.445 496.037 138.828Z" fill="white" fill-opacity="0.1"/>
<path d="M480.563 199.123C480.563 198.506 481.063 198.006 481.681 198.006C482.298 198.006 482.799 198.506 482.799 199.123C482.799 199.741 482.298 200.241 481.681 200.241C481.063 200.241 480.563 199.741 480.563 199.123Z" fill="white" fill-opacity="0.1"/>
<path d="M273.899 374.346C274.906 373.9 276.084 374.355 276.53 375.362C276.976 376.369 276.521 377.546 275.513 377.992C274.506 378.437 273.328 377.983 272.882 376.976C272.436 375.969 272.892 374.792 273.899 374.346Z" fill="white" fill-opacity="0.15"/>
<path d="M428.071 357.674C428.071 356.573 428.964 355.681 430.066 355.681C431.167 355.681 432.06 356.573 432.06 357.674C432.06 358.775 431.167 359.668 430.066 359.668C428.964 359.668 428.071 358.775 428.071 357.674Z" fill="white" fill-opacity="0.15"/>
<path d="M279.955 309.287C280.734 308.509 281.996 308.509 282.775 309.287C283.554 310.066 283.554 311.328 282.775 312.106C281.996 312.885 280.734 312.885 279.955 312.106C279.176 311.328 279.176 310.066 279.955 309.287Z" fill="white" fill-opacity="0.15"/>
<path d="M305.167 358.55C305.167 357.933 305.667 357.433 306.285 357.433C306.903 357.433 307.403 357.933 307.403 358.55C307.403 359.168 306.903 359.668 306.285 359.668C305.667 359.668 305.167 359.168 305.167 358.55Z" fill="white" fill-opacity="0.15"/>
<path d="M398.382 242.031C398.382 241.414 398.883 240.913 399.5 240.913C400.118 240.913 400.619 241.414 400.619 242.031C400.619 242.648 400.118 243.148 399.5 243.148C398.883 243.148 398.382 242.648 398.382 242.031Z" fill="white" fill-opacity="0.15"/>
<path d="M460.881 316.328C461.032 317.536 461.153 317.657 462.392 317.838C461.184 317.989 461.063 318.11 460.881 319.348C460.73 318.14 460.609 318.019 459.37 317.838C460.579 317.687 460.7 317.536 460.881 316.328Z" fill="white" fill-opacity="0.1"/>
<path d="M355.521 364.417C355.672 365.625 355.793 365.746 357.032 365.927C355.823 366.078 355.702 366.199 355.521 367.437C355.37 366.229 355.249 366.108 354.01 365.927C355.219 365.776 355.34 365.625 355.521 364.417Z" fill="white" fill-opacity="0.1"/>
<path d="M432.091 238.28C432.242 239.488 432.363 239.609 433.602 239.79C432.393 239.941 432.272 240.062 432.091 241.3C431.94 240.092 431.819 239.971 430.58 239.79C431.789 239.639 431.91 239.488 432.091 238.28Z" fill="white" fill-opacity="0.1"/>
<path d="M499.783 353.319C499.934 354.528 500.055 354.648 501.294 354.83C500.085 354.981 499.964 355.102 499.783 356.34C499.632 355.132 499.511 355.011 498.272 354.83C499.481 354.679 499.602 354.528 499.783 353.319Z" fill="white" fill-opacity="0.1"/>
<path d="M591.659 587.202C591.809 585.994 591.93 585.873 593.169 585.692C591.961 585.541 591.84 585.42 591.659 584.181C591.507 585.39 591.386 585.51 590.148 585.692C591.356 585.843 591.477 585.994 591.659 587.202Z" fill="white" fill-opacity="0.1"/>
<path d="M675.302 729.362C675.453 728.154 675.574 728.033 676.813 727.852C675.604 727.7 675.484 727.58 675.302 726.341C675.151 727.55 675.03 727.67 673.791 727.852C675 728.003 675.121 728.154 675.302 729.362Z" fill="white" fill-opacity="0.1"/>
<path d="M579.063 721.025C579.214 719.816 579.335 719.696 580.574 719.514C579.365 719.363 579.244 719.243 579.063 718.004C578.912 719.212 578.791 719.333 577.552 719.514C578.76 719.665 578.881 719.816 579.063 721.025Z" fill="white" fill-opacity="0.1"/>
<path d="M414.231 629.139C414.382 627.931 414.503 627.81 415.742 627.629C414.533 627.478 414.412 627.357 414.231 626.119C414.08 627.327 413.959 627.448 412.72 627.629C413.929 627.78 414.05 627.931 414.231 629.139Z" fill="white" fill-opacity="0.1"/>
<path d="M502.944 533.196C503.095 531.988 503.216 531.867 504.455 531.686C503.246 531.534 503.125 531.414 502.944 530.175C502.793 531.383 502.672 531.504 501.433 531.686C502.641 531.836 502.762 531.988 502.944 533.196Z" fill="white" fill-opacity="0.1"/>
<path d="M522.152 579.203C522.152 579.82 522.653 580.32 523.27 580.32C523.888 580.32 524.388 579.82 524.388 579.203C524.388 578.585 523.888 578.085 523.27 578.085C522.653 578.085 522.152 578.585 522.152 579.203Z" fill="white" fill-opacity="0.1"/>
<path d="M356.061 687.068C356.061 687.685 356.561 688.185 357.179 688.185C357.797 688.185 358.297 687.685 358.297 687.068C358.297 686.45 357.797 685.95 357.179 685.95C356.561 685.95 356.061 686.45 356.061 687.068Z" fill="white" fill-opacity="0.1"/>
<path d="M612.773 611.607C612.773 612.224 613.274 612.725 613.892 612.725C614.509 612.725 615.01 612.224 615.01 611.607C615.01 610.99 614.509 610.49 613.892 610.49C613.274 610.49 612.773 610.99 612.773 611.607Z" fill="white" fill-opacity="0.1"/>
<path d="M401.594 529.118C401.594 529.735 402.095 530.235 402.713 530.235C403.33 530.235 403.831 529.735 403.831 529.118C403.831 528.5 403.33 528 402.713 528C402.095 528 401.594 528.5 401.594 529.118Z" fill="white" fill-opacity="0.1"/>
<path d="M639.406 654.886C639.406 655.503 639.907 656.003 640.525 656.003C641.142 656.003 641.643 655.503 641.643 654.886C641.643 654.269 641.142 653.768 640.525 653.768C639.907 653.768 639.406 654.269 639.406 654.886Z" fill="white" fill-opacity="0.1"/>
<path d="M604.618 744.133C604.618 744.751 605.118 745.251 605.736 745.251C606.353 745.251 606.854 744.751 606.854 744.133C606.854 743.516 606.353 743.016 605.736 743.016C605.118 743.016 604.618 743.516 604.618 744.133Z" fill="white" fill-opacity="0.1"/>
<path d="M584.599 635.651C584.599 636.268 585.099 636.769 585.717 636.769C586.335 636.769 586.835 636.268 586.835 635.651C586.835 635.034 586.335 634.534 585.717 634.534C585.099 634.534 584.599 635.034 584.599 635.651Z" fill="white" fill-opacity="0.1"/>
<path d="M600.275 679.136C601.282 679.582 602.46 679.127 602.906 678.12C603.352 677.114 602.896 675.936 601.889 675.49C600.882 675.045 599.704 675.5 599.258 676.506C598.812 677.513 599.268 678.69 600.275 679.136Z" fill="white" fill-opacity="0.15"/>
<path d="M453.571 673.59C453.571 674.691 454.464 675.584 455.565 675.584C456.667 675.584 457.56 674.691 457.56 673.59C457.56 672.489 456.667 671.597 455.565 671.597C454.464 671.597 453.571 672.489 453.571 673.59Z" fill="white" fill-opacity="0.15"/>
<path d="M519.71 640.624C520.489 641.402 521.752 641.402 522.531 640.624C523.31 639.845 523.31 638.583 522.531 637.805C521.752 637.026 520.489 637.026 519.71 637.805C518.931 638.583 518.931 639.845 519.71 640.624Z" fill="white" fill-opacity="0.15"/>
<path d="M591.627 537.997C591.627 538.614 592.128 539.114 592.745 539.114C593.363 539.114 593.863 538.614 593.863 537.997C593.863 537.38 593.363 536.879 592.745 536.879C592.128 536.879 591.627 537.38 591.627 537.997Z" fill="white" fill-opacity="0.15"/>
<path d="M469.251 569.068C469.251 569.685 469.752 570.186 470.369 570.186C470.987 570.186 471.487 569.685 471.487 569.068C471.487 568.451 470.987 567.951 470.369 567.951C469.752 567.951 469.251 568.451 469.251 569.068Z" fill="white" fill-opacity="0.15"/>
<path d="M457.673 743.061C457.825 741.852 457.945 741.732 459.184 741.55C457.976 741.399 457.855 741.278 457.673 740.04C457.522 741.248 457.402 741.369 456.163 741.55C457.371 741.701 457.492 741.852 457.673 743.061Z" fill="white" fill-opacity="0.1"/>
<path d="M370.148 600.148C370.3 598.94 370.42 598.819 371.659 598.638C370.451 598.487 370.33 598.366 370.148 597.128C369.997 598.336 369.876 598.457 368.638 598.638C369.846 598.789 369.967 598.94 370.148 600.148Z" fill="white" fill-opacity="0.1"/>
<path d="M314.51 652.768C314.661 651.56 314.782 651.439 316.021 651.258C314.812 651.107 314.691 650.986 314.51 649.747C314.359 650.956 314.238 651.076 312.999 651.258C314.208 651.409 314.329 651.56 314.51 652.768Z" fill="white" fill-opacity="0.1"/>
<path d="M400.3 764.957C400.451 766.165 400.572 766.286 401.811 766.467C400.603 766.618 400.482 766.739 400.3 767.977C400.149 766.769 400.028 766.648 398.789 766.467C399.998 766.316 400.119 766.165 400.3 764.957Z" fill="white" fill-opacity="0.1"/>
<path d="M304.061 773.294C304.212 774.502 304.333 774.623 305.572 774.804C304.363 774.956 304.242 775.076 304.061 776.315C303.91 775.106 303.789 774.986 302.55 774.804C303.759 774.654 303.879 774.502 304.061 773.294Z" fill="white" fill-opacity="0.1"/>
<path d="M104.764 707C104.915 708.208 105.036 708.329 106.275 708.51C105.066 708.661 104.945 708.782 104.764 710.02C104.613 708.812 104.492 708.691 103.253 708.51C104.462 708.359 104.583 708.208 104.764 707Z" fill="white" fill-opacity="0.1"/>
<path d="M81.0589 807.251C81.0589 806.634 81.5594 806.134 82.177 806.134C82.7946 806.134 83.295 806.634 83.295 807.251C83.295 807.869 82.7946 808.369 82.177 808.369C81.5594 808.369 81.0589 807.869 81.0589 807.251Z" fill="white" fill-opacity="0.1"/>
<path d="M337.771 882.712C337.771 882.095 338.272 881.594 338.89 881.594C339.507 881.594 340.008 882.095 340.008 882.712C340.008 883.329 339.507 883.829 338.89 883.829C338.272 883.829 337.771 883.329 337.771 882.712Z" fill="white" fill-opacity="0.1"/>
<path d="M364.404 839.433C364.404 838.816 364.905 838.315 365.523 838.315C366.14 838.315 366.641 838.816 366.641 839.433C366.641 840.05 366.14 840.55 365.523 840.55C364.905 840.55 364.404 840.05 364.404 839.433Z" fill="white" fill-opacity="0.1"/>
<path d="M329.616 750.185C329.616 749.568 330.116 749.068 330.734 749.068C331.351 749.068 331.852 749.568 331.852 750.185C331.852 750.803 331.351 751.303 330.734 751.303C330.116 751.303 329.616 750.803 329.616 750.185Z" fill="white" fill-opacity="0.1"/>
<path d="M309.597 858.668C309.597 858.05 310.097 857.55 310.715 857.55C311.333 857.55 311.833 858.05 311.833 858.668C311.833 859.285 311.333 859.785 310.715 859.785C310.097 859.785 309.597 859.285 309.597 858.668Z" fill="white" fill-opacity="0.1"/>
<path d="M325.273 815.183C326.28 814.737 327.458 815.192 327.904 816.199C328.35 817.205 327.895 818.383 326.887 818.828C325.88 819.274 324.702 818.819 324.256 817.813C323.81 816.806 324.266 815.629 325.273 815.183Z" fill="white" fill-opacity="0.15"/>
<path d="M178.569 820.728C178.569 819.627 179.462 818.735 180.563 818.735C181.665 818.735 182.558 819.627 182.558 820.728C182.558 821.829 181.665 822.722 180.563 822.722C179.462 822.722 178.569 821.829 178.569 820.728Z" fill="white" fill-opacity="0.15"/>
<path d="M244.708 853.695C245.487 852.917 246.75 852.917 247.529 853.695C248.308 854.474 248.308 855.736 247.529 856.514C246.75 857.293 245.487 857.293 244.708 856.514C243.93 855.736 243.93 854.474 244.708 853.695Z" fill="white" fill-opacity="0.15"/>
<path d="M182.672 751.258C182.823 752.466 182.943 752.587 184.182 752.769C182.974 752.92 182.853 753.04 182.672 754.279C182.52 753.071 182.4 752.95 181.161 752.769C182.369 752.618 182.49 752.466 182.672 751.258Z" fill="white" fill-opacity="0.1"/>
<path d="M95.1465 894.171C95.2976 895.379 95.4185 895.5 96.6575 895.681C95.4487 895.832 95.3278 895.953 95.1465 897.191C94.9954 895.983 94.8745 895.862 93.6356 895.681C94.8443 895.53 94.9652 895.379 95.1465 894.171Z" fill="white" fill-opacity="0.1"/>
<path d="M41.5106 741.031C41.6617 742.239 41.7826 742.36 43.0216 742.541C41.8128 742.692 41.692 742.813 41.5106 744.052C41.3596 742.843 41.2387 742.723 39.9997 742.541C41.2085 742.39 41.3293 742.239 41.5106 741.031Z" fill="white" fill-opacity="0.1"/>
</svg>
